<?xml version="1.0" standalone="no"?>
<!DOCTYPE svg PUBLIC "-//W3C//DTD SVG 20010904//EN"
 "http://www.w3.org/TR/2001/REC-SVG-20010904/DTD/svg10.dtd">
<svg version="1.0" xmlns="http://www.w3.org/2000/svg"
 width="500.000000pt" height="500.000000pt" viewBox="0 0 500.000000 500.000000"
 preserveAspectRatio="xMidYMid meet">
<metadata>
Created by potrace 1.14, written by Peter Selinger 2001-2017
</metadata>
<g transform="translate(0.000000,500.000000) scale(0.100000,-0.100000)"
fill="#000000" stroke="none">
<path d="M2710 4800 c-71 -26 -90 -34 -244 -111 -102 -50 -142 -76 -188 -122
-79 -79 -79 -103 0 -154 77 -51 69 -45 142 -108 90 -78 87 -75 160 -122 115
-74 109 -67 82 -96 -25 -27 -76 -38 -167 -38 -60 0 -248 16 -290 25 -159 35
-207 40 -251 28 -25 -7 -49 -10 -54 -7 -12 7 -128 -32 -160 -55 -14 -9 -38
-21 -55 -24 -36 -8 -64 -32 -130 -111 -60 -71 -63 -77 -116 -180 -54 -106 -89
-204 -89 -250 0 -52 20 -168 31 -179 5 -6 9 -16 9 -23 0 -17 46 -86 84 -127
16 -17 44 -50 64 -73 19 -24 40 -43 46 -43 7 0 33 -13 59 -30 26 -16 54 -30
61 -30 7 0 24 -8 37 -19 13 -10 62 -26 109 -36 46 -9 109 -30 140 -45 108 -54
125 -63 140 -75 8 -7 26 -15 40 -18 14 -4 38 -19 55 -34 16 -15 45 -35 65 -44
54 -26 90 -65 90 -100 0 -40 -16 -69 -39 -69 -29 0 -43 -24 -36 -62 5 -28 2
-38 -21 -61 -49 -49 -83 -30 -92 51 -6 57 -16 72 -50 72 -13 0 -47 14 -74 30
-73 45 -86 41 -152 -40 -31 -39 -70 -96 -87 -128 -108 -195 -122 -228 -130
-292 -19 -162 -18 -161 -53 -160 -17 1 -37 2 -45 1 -22 -2 -152 -141 -168
-180 -8 -20 -22 -44 -31 -53 -8 -10 -18 -45 -21 -79 l-6 -60 -72 -2 c-71 -3
-74 -4 -117 -46 -25 -24 -50 -58 -56 -75 -6 -17 -18 -44 -25 -61 -13 -28 -27
-139 -25 -195 6 -144 10 -180 24 -212 9 -21 16 -58 16 -84 0 -37 4 -47 19 -51
16 -4 51 -67 74 -135 4 -11 16 -18 31 -18 27 0 47 -16 72 -58 9 -15 31 -38 50
-51 19 -13 34 -32 34 -41 0 -10 15 -28 34 -40 19 -11 51 -43 70 -70 20 -28 42
-50 49 -50 7 0 30 -18 52 -40 28 -29 49 -41 81 -46 26 -4 55 -17 75 -35 18
-16 41 -29 52 -29 11 0 35 -10 54 -21 24 -15 37 -18 42 -11 4 6 34 14 66 17
131 14 173 51 192 169 10 64 10 84 -1 110 -7 17 -16 58 -20 89 -4 32 -20 86
-36 120 -15 34 -30 70 -34 80 -3 10 -16 17 -33 17 -33 1 -93 65 -123 133 -11
24 -43 67 -71 96 l-52 53 18 32 c27 47 56 76 77 76 16 0 19 7 16 47 -3 44 -6
50 -41 68 -79 42 -119 158 -86 248 12 35 12 40 -4 48 -15 9 -16 19 -11 62 4
29 12 63 20 77 7 14 15 37 18 51 3 14 17 41 31 60 13 19 31 48 39 65 8 17 33
50 56 75 48 52 40 44 181 183 78 76 109 114 106 126 -3 13 5 20 32 29 21 6 59
31 87 56 58 54 82 62 122 41 17 -9 42 -16 55 -16 14 0 41 -7 61 -15 34 -15 36
-17 36 -64 0 -31 5 -53 15 -61 19 -16 69 -6 102 20 36 28 67 25 106 -10 19
-16 41 -30 50 -30 8 0 20 -7 27 -16 8 -8 28 -21 45 -28 31 -13 32 -16 39 -93
4 -48 3 -90 -3 -107 -6 -15 -11 -42 -11 -60 0 -39 -41 -82 -91 -96 -24 -7 -40
-21 -56 -48 -21 -37 -21 -42 -7 -87 19 -63 18 -69 -9 -101 l-23 -26 -17 26
c-10 14 -24 26 -32 26 -35 0 -40 -78 -6 -103 34 -24 30 -35 -25 -76 -30 -22
-59 -41 -63 -41 -14 0 -21 28 -21 86 0 50 -2 54 -24 54 -20 0 -25 -6 -31 -40
-4 -21 -4 -43 -1 -48 2 -4 0 -27 -6 -50 -7 -29 -16 -42 -28 -42 -24 0 -127 76
-135 99 -3 11 1 37 10 58 9 21 19 76 22 123 3 47 11 96 18 110 21 41 118 141
194 200 75 58 89 77 66 86 -17 7 -79 -37 -186 -131 -68 -59 -86 -83 -120 -151
-22 -45 -39 -96 -39 -115 0 -19 -10 -65 -21 -104 -32 -109 -32 -109 -12 -131
25 -29 143 -100 185 -112 23 -6 47 -5 76 3 38 12 43 11 52 -5 16 -30 -21 -105
-59 -118 -34 -12 -40 -32 -16 -52 22 -18 19 -27 -20 -68 -28 -30 -42 -37 -77
-39 -24 -1 -68 -6 -98 -11 -72 -12 -164 9 -202 45 l-28 27 -28 -21 c-17 -12
-30 -34 -35 -59 -5 -21 -15 -62 -23 -90 -18 -67 -18 -104 1 -104 25 0 53 36
65 82 15 61 24 73 51 70 119 -13 118 -13 113 -42 -6 -26 10 -53 38 -63 11 -4
11 -8 0 -23 -6 -11 -24 -44 -38 -74 -14 -30 -35 -73 -47 -95 -14 -28 -21 -66
-25 -132 -5 -89 -4 -94 23 -129 15 -20 44 -43 64 -51 20 -8 49 -26 64 -39 16
-13 41 -24 55 -24 15 0 35 -7 46 -15 27 -20 168 -11 221 14 22 11 54 25 72 31
18 7 43 29 58 51 14 22 37 45 51 51 14 7 34 29 45 50 11 21 30 45 44 54 14 9
31 36 41 66 9 27 22 52 29 54 14 6 78 173 90 234 4 19 9 78 12 131 5 91 3 99
-21 138 -14 22 -43 49 -63 60 -21 10 -47 28 -57 40 -44 48 -76 60 -144 52 -39
-5 -73 -15 -92 -29 -16 -12 -33 -22 -38 -22 -11 0 -10 130 1 147 4 6 27 20 51
31 39 19 46 28 61 74 10 29 21 58 25 63 20 30 32 95 22 122 -11 33 -5 84 12
95 6 4 20 8 31 8 12 0 37 20 60 47 45 53 52 84 61 247 l6 98 -30 32 c-16 17
-32 39 -35 49 -4 9 -16 17 -28 17 -12 0 -48 18 -80 40 -67 45 -107 51 -153 21
-29 -19 -46 -19 -46 0 0 5 11 9 24 9 31 0 39 22 21 62 -12 29 -11 36 3 62 29
50 96 113 131 125 19 6 43 19 54 29 14 13 39 17 101 19 104 2 250 19 275 33
11 5 56 19 101 29 45 11 95 29 113 40 18 11 48 29 67 40 19 11 51 37 71 58 32
34 44 52 81 126 28 56 50 153 55 241 7 118 -18 278 -54 341 -12 22 -31 56 -42
75 -11 19 -31 51 -46 70 l-26 35 21 17 c17 14 27 15 48 7 15 -6 63 -13 107
-16 l81 -6 122 59 122 58 -3 120 c-1 67 2 155 7 197 15 137 -20 212 -178 372
-121 123 -168 157 -218 157 -51 0 -103 -22 -123 -53 -15 -23 -15 -28 0 -64 9
-21 27 -83 40 -138 62 -264 72 -292 139 -359 44 -43 44 -44 35 -91 -5 -27 -10
-49 -12 -50 -1 -1 -33 -21 -71 -44 -87 -51 -136 -55 -163 -13 -37 56 -178 181
-207 182 -4 0 -21 11 -38 25 -16 14 -35 25 -42 25 -8 0 -25 9 -39 20 -34 27
-128 53 -210 58 -69 4 -171 -16 -229 -45 -32 -15 -58 -8 -58 17 0 9 -29 44
-65 78 -57 53 -65 65 -65 96 0 40 4 43 70 49 54 5 139 40 195 80 36 25 135
131 135 144 0 16 -150 168 -177 179 -42 18 -57 17 -123 -6z m127 -56 c13 -8
31 -31 42 -52 10 -20 28 -46 40 -56 12 -11 21 -27 21 -36 0 -17 -79 -90 -98
-90 -5 0 -20 -9 -34 -19 -33 -26 -98 -39 -98 -19 0 26 35 49 69 46 27 -3 34 2
53 35 21 36 21 38 5 66 -9 16 -17 36 -17 45 0 24 -72 20 -155 -9 -38 -13 -81
-25 -94 -25 -32 0 -115 -53 -170 -108 -36 -37 -42 -49 -37 -73 4 -22 2 -29 -9
-29 -8 0 -15 4 -15 8 0 4 -13 16 -30 25 -16 10 -30 24 -30 30 0 7 18 33 39 58
32 37 68 59 186 118 222 110 274 123 332 85z m950 -121 c8 -20 1 -24 -56 -27
-41 -3 -53 0 -61 14 -11 20 2 35 35 42 27 6 75 -11 82 -29z m-46 -196 c23 -76
47 -172 55 -222 l5 -30 -15 25 c-26 42 -55 126 -65 187 -5 32 -13 73 -17 92
-13 63 14 24 37 -52z m228 36 c64 -68 100 -142 101 -202 0 -43 0 -44 -20 -26
-11 10 -22 27 -26 39 -3 11 -23 39 -45 61 -35 37 -58 94 -59 148 0 25 10 21
49 -20z m-91 -29 c5 -18 6 -37 2 -45 -12 -19 -16 -11 -25 46 -7 54 5 53 23 -1z
m-1318 -78 c0 -14 -5 -28 -11 -32 -17 -10 -32 12 -24 35 9 29 35 27 35 -3z
m584 -229 c14 -9 33 -17 43 -17 33 0 173 -93 243 -163 l39 -38 -24 -46 c-14
-25 -25 -56 -25 -69 0 -32 42 -43 80 -20 51 29 55 14 10 -34 -37 -39 -31 -52
10 -22 16 12 31 22 34 22 3 0 15 -22 27 -50 12 -27 25 -50 29 -50 13 0 69
-172 79 -240 12 -89 4 -253 -15 -319 -52 -179 -142 -259 -349 -308 -127 -31
-261 -52 -293 -46 -34 6 -152 -16 -152 -28 0 -4 -10 -11 -22 -14 -37 -11 -121
-80 -153 -125 -69 -96 -66 -93 -110 -77 -22 8 -66 20 -97 27 l-58 11 0 47 c0
65 -18 124 -43 144 -18 14 -19 18 -7 22 24 9 142 27 173 26 16 0 52 6 80 15
29 8 84 24 123 36 43 12 81 30 95 45 12 13 30 24 38 24 9 0 38 32 64 70 40 59
50 82 58 138 l10 67 -31 28 c-18 16 -37 26 -43 24 -21 -6 -19 -49 2 -78 12
-15 21 -32 21 -37 0 -24 -51 -120 -76 -143 -69 -63 -113 -83 -229 -106 -16 -3
-39 -12 -51 -19 -34 -23 -272 -22 -328 1 -19 8 -41 12 -49 9 -18 -7 -85 26
-111 55 -11 12 -26 21 -35 21 -28 0 -95 28 -138 56 -29 18 -44 37 -49 58 -3
16 -16 43 -27 58 -17 23 -19 32 -9 53 15 33 6 55 -24 55 -53 0 -68 -99 -23
-151 39 -45 6 -54 -53 -14 -21 14 -48 30 -60 36 -82 37 -189 141 -239 233 -23
43 -28 61 -34 122 -5 53 -3 81 10 119 25 73 92 210 110 225 8 7 15 18 15 24 0
7 17 27 38 47 21 19 44 43 52 54 8 11 35 29 60 40 25 10 58 28 74 39 16 10 47
23 70 28 133 30 155 32 248 19 51 -7 135 -15 186 -17 50 -3 92 -10 92 -15 0
-28 198 8 255 47 20 13 37 24 39 24 2 0 29 16 61 35 32 19 77 37 101 41 24 3
47 11 50 16 11 17 208 4 238 -15z m920 -192 c7 -19 -2 -42 -19 -49 -20 -7 -27
8 -15 38 11 29 25 34 34 11z m-216 -52 c-2 -10 -20 -22 -46 -29 -46 -14 -54
-7 -19 16 49 33 70 37 65 13z m112 -33 c0 -10 -63 -40 -84 -40 -6 0 1 11 14
24 25 25 70 35 70 16z m-1898 -1345 c20 -14 41 -25 47 -25 25 0 42 -33 36 -71
-7 -41 7 -79 30 -79 34 0 19 -21 -58 -83 -45 -36 -88 -75 -95 -87 -7 -11 -18
-20 -25 -20 -22 0 -161 -156 -196 -220 -88 -161 -111 -217 -111 -270 0 -72
-17 -104 -56 -108 -47 -5 -87 14 -79 37 8 25 -19 51 -53 51 -47 0 -56 12 -42
55 l12 37 68 -6 c46 -5 70 -3 75 4 10 16 -12 38 -46 45 -16 4 -31 11 -34 16
-4 5 14 29 38 54 46 46 71 54 109 34 11 -6 30 -8 42 -5 21 5 24 13 30 98 18
241 33 288 133 428 10 14 25 41 34 60 23 48 55 80 82 80 12 0 39 -11 59 -25z
m-674 -1015 c28 -7 53 -21 69 -41 14 -16 38 -36 53 -44 27 -14 59 -79 46 -92
-15 -15 -83 12 -119 48 -22 21 -41 39 -43 39 -2 0 -4 -9 -4 -20 0 -13 -7 -20
-18 -20 -13 0 -28 18 -45 54 -30 62 -32 72 -14 79 18 8 28 7 75 -3z m311 -41
c6 -18 11 -40 11 -50 0 -11 4 -19 9 -19 5 0 20 -25 35 -55 14 -30 35 -60 46
-67 11 -7 20 -19 20 -27 0 -20 -30 -51 -49 -51 -20 0 -86 68 -95 97 -4 12 -19
37 -34 56 -15 19 -35 49 -45 67 -9 18 -26 34 -37 37 -11 3 -20 11 -20 19 0 9
18 14 58 17 31 2 64 4 74 5 10 1 20 -10 27 -29z m-406 -38 c9 -27 17 -57 17
-68 0 -24 -51 -55 -57 -35 -3 6 -11 12 -19 12 -11 0 -12 -4 -4 -19 10 -20 -6
-107 -29 -149 -11 -20 -5 -58 12 -80 6 -7 7 -41 4 -82 -4 -53 -2 -71 9 -81 16
-13 19 -39 4 -39 -47 0 -85 277 -58 430 11 66 65 160 92 160 6 0 19 -22 29
-49z m169 -146 c13 -13 33 -41 44 -62 10 -21 24 -45 30 -53 6 -8 25 -40 41
-70 16 -30 42 -74 56 -97 15 -24 27 -45 27 -48 0 -4 13 -25 28 -48 16 -23 31
-49 34 -58 3 -8 38 -64 77 -124 69 -106 71 -110 53 -127 -10 -11 -25 -16 -33
-13 -18 7 -157 183 -184 233 -12 20 -37 64 -56 97 -20 33 -57 107 -83 165 -27
58 -59 123 -72 146 -44 75 -18 115 38 59z m-80 -46 c86 -174 178 -358 198
-398 26 -51 126 -187 155 -211 15 -12 45 -62 45 -74 0 -3 -24 -3 -52 -1 -50 3
-55 6 -90 52 -20 26 -83 140 -141 253 -58 113 -123 236 -146 275 -46 78 -49
92 -23 123 22 28 33 24 54 -19z m231 3 c8 -9 17 -29 21 -44 3 -15 21 -42 39
-60 25 -25 37 -48 46 -93 10 -45 21 -67 45 -91 26 -24 36 -45 50 -104 24 -109
9 -109 -55 3 -23 40 -84 143 -135 229 -89 149 -102 177 -88 191 9 8 60 -12 77
-31z m1323 15 c32 -28 28 -41 -40 -109 -78 -77 -54 -109 28 -37 33 29 50 39
58 31 10 -10 7 -24 -38 -219 -8 -36 -31 -88 -56 -127 -40 -63 -58 -75 -58 -37
0 25 -20 41 -52 41 -28 0 -37 -13 -18 -25 14 -9 12 -145 -3 -175 -7 -13 -22
-29 -34 -35 -12 -6 -30 -21 -40 -33 -10 -13 -34 -25 -55 -29 -37 -5 -38 -5
-38 25 0 17 5 34 10 37 20 12 10 35 -15 35 -15 0 -25 -6 -25 -14 0 -7 -7 -19
-15 -26 -9 -8 -15 -29 -15 -56 0 -51 -9 -56 -105 -52 l-60 3 -3 47 c-2 27 3
62 11 80 8 18 20 52 25 76 17 71 125 232 156 232 29 0 146 113 146 141 0 21
-31 6 -65 -33 -25 -27 -50 -44 -74 -49 -20 -4 -46 -11 -58 -14 -39 -12 -27 14
35 75 31 31 86 88 122 126 109 116 142 137 227 143 12 0 34 -9 49 -22z m147
-163 c9 -65 -5 -175 -30 -234 -8 -19 -20 -53 -27 -75 -7 -22 -29 -62 -49 -89
-21 -26 -37 -52 -37 -58 0 -16 -46 -71 -133 -159 -68 -68 -83 -79 -113 -79
-18 0 -34 3 -34 8 0 4 34 36 75 71 41 35 75 70 75 77 0 8 10 16 23 19 17 5 26
18 34 48 7 24 26 60 42 81 17 21 31 46 31 54 0 9 10 26 22 39 12 12 22 31 23
41 0 10 6 31 12 48 17 42 43 180 43 223 0 77 32 66 43 -15z m-1731 -25 c21
-41 42 -81 47 -89 5 -8 25 -49 46 -90 60 -120 90 -175 114 -209 12 -17 26 -45
31 -61 8 -29 8 -30 -27 -30 -42 0 -91 27 -99 55 -3 11 -21 36 -40 55 -23 25
-37 51 -43 83 -5 26 -16 56 -25 66 -18 20 -20 31 -7 31 5 0 12 -8 15 -17 3
-10 16 -29 28 -43 13 -14 35 -44 51 -67 24 -37 47 -55 47 -37 0 3 -28 51 -62
105 -35 55 -67 108 -73 117 -5 10 -20 34 -33 54 -16 26 -22 50 -21 80 1 24 -2
51 -6 62 -6 13 -4 17 5 14 7 -2 31 -38 52 -79z m484 -86 c11 -16 30 -49 42
-74 23 -47 38 -65 84 -99 14 -11 34 -42 44 -68 23 -62 38 -79 58 -63 12 10 16
8 21 -8 3 -11 3 -35 0 -54 -5 -24 -2 -38 9 -50 21 -21 23 -137 2 -137 -16 0
-134 124 -176 185 -18 27 -29 58 -33 95 -14 130 -40 228 -67 260 -11 13 -20
27 -20 32 0 16 17 8 36 -19z m594 1 c0 -39 -56 -57 -92 -30 -27 20 -22 25 30
29 26 2 50 4 55 5 4 1 7 -1 7 -4z m26 -115 c3 -6 -5 -23 -18 -37 -25 -28 -88
-124 -88 -135 0 -17 -42 -117 -50 -117 -4 0 -11 12 -14 26 -5 18 3 46 29 98
19 40 35 78 35 86 0 18 70 90 86 90 7 0 16 -5 20 -11z m-456 -399 c49 -49 90
-91 90 -94 0 -75 -185 -91 -282 -24 -24 17 -88 102 -88 118 0 4 30 10 68 14
65 7 68 6 92 -21 14 -16 33 -34 43 -42 30 -24 21 13 -13 49 -36 38 -41 90 -9
90 5 0 49 -40 99 -90z m-297 -22 c22 -26 22 -38 -1 -38 -18 0 -49 28 -67 59
-13 22 46 4 68 -21z"/>
<path d="M2887 4114 c-4 -4 -7 -18 -7 -31 0 -29 37 -45 94 -41 63 5 60 32 -6
53 -29 10 -58 20 -64 22 -5 2 -13 0 -17 -3z"/>
<path d="M2323 3772 c-29 -4 -37 -29 -13 -42 48 -26 292 1 298 33 3 15 -9 17
-130 15 -73 -2 -143 -4 -155 -6z"/>
<path d="M2740 3762 c0 -10 10 -28 23 -39 46 -43 208 -111 247 -104 49 8 29
45 -33 62 -23 6 -76 31 -119 55 -84 48 -118 55 -118 26z"/>
<path d="M1956 3595 c-11 -8 -27 -15 -37 -15 -9 0 -28 -9 -43 -21 -22 -17 -26
-29 -26 -68 0 -52 8 -62 73 -96 30 -15 60 -19 138 -20 111 0 122 6 145 72 19
52 18 54 -18 101 -26 33 -41 43 -80 52 -68 14 -129 12 -152 -5z"/>
<path d="M2433 4125 c-8 -22 29 -55 61 -55 68 1 94 42 34 54 -18 3 -45 9 -60
12 -21 5 -29 2 -35 -11z"/>
</g>
</svg>
