<?xml version="1.0" standalone="no"?>
<!DOCTYPE svg PUBLIC "-//W3C//DTD SVG 20010904//EN"
 "http://www.w3.org/TR/2001/REC-SVG-20010904/DTD/svg10.dtd">
<svg version="1.0" xmlns="http://www.w3.org/2000/svg"
 width="1280.000000pt" height="1280.000000pt" viewBox="0 0 1280.000000 1280.000000"
 preserveAspectRatio="xMidYMid meet">
<metadata>
Created by potrace 1.14, written by Peter Selinger 2001-2017
</metadata>
<g transform="translate(0.000000,1280.000000) scale(0.100000,-0.100000)"
fill="#000000" stroke="none">
<path d="M5862 8348 c-19 -10 -32 -13 -32 -7 0 8 -4 8 -13 1 -6 -6 -26 -9 -44
-8 -17 1 -31 -3 -30 -8 1 -6 -10 -11 -25 -11 -15 0 -30 -4 -34 -8 -4 -4 -18
-7 -31 -7 -12 0 -23 -5 -23 -11 0 -5 -4 -8 -9 -5 -5 3 -20 -5 -33 -17 -14 -13
-30 -21 -37 -19 -7 2 -18 -3 -24 -13 -13 -17 -33 -23 -80 -24 -20 -1 -26 -5
-21 -13 6 -10 4 -10 -8 0 -14 11 -16 10 -13 -5 2 -10 4 -18 5 -18 1 0 3 -8 5
-17 2 -12 -2 -15 -13 -11 -9 4 -13 2 -9 -4 6 -10 -45 -75 -57 -73 -21 1 -26
-1 -21 -11 4 -5 -5 -21 -19 -34 -14 -13 -26 -29 -26 -34 0 -5 -9 -8 -20 -6
-17 3 -19 1 -10 -16 9 -15 7 -19 -5 -19 -9 0 -14 -4 -11 -9 3 -4 -3 -19 -14
-31 -11 -13 -20 -26 -20 -30 0 -4 -9 -17 -20 -30 -16 -18 -17 -26 -8 -37 9
-11 9 -16 -3 -23 -8 -5 -14 -15 -14 -22 -1 -7 -7 -12 -13 -10 -10 2 -10 -3 -1
-19 9 -17 8 -20 -2 -14 -9 6 -11 3 -6 -8 3 -10 2 -17 -3 -17 -5 0 -7 -7 -4
-15 4 -8 2 -15 -4 -15 -6 0 -8 -10 -4 -22 3 -14 1 -19 -6 -14 -7 4 -9 -2 -6
-17 2 -15 -3 -31 -16 -42 -11 -10 -17 -22 -14 -26 3 -5 1 -9 -3 -9 -5 0 -10
-10 -10 -22 -1 -13 -7 -24 -13 -26 -11 -4 -27 -37 -28 -56 0 -5 -6 -13 -14
-17 -8 -6 -9 -9 -1 -9 15 0 10 -29 -6 -40 -8 -4 -10 -13 -6 -20 5 -9 4 -11 -3
-6 -8 5 -12 0 -12 -13 0 -12 -4 -21 -9 -21 -4 0 -8 -8 -8 -17 0 -40 -3 -54
-11 -49 -5 3 -8 -5 -7 -17 2 -26 -5 -48 -14 -43 -3 2 -6 -9 -6 -25 0 -16 4
-29 9 -29 4 0 2 -10 -6 -22 -10 -15 -14 -45 -13 -88 1 -36 -3 -68 -8 -71 -5
-4 -6 -13 -1 -20 11 -19 11 -72 0 -81 -14 -9 -14 -57 0 -62 6 -2 10 -20 9 -40
-2 -24 2 -39 13 -45 9 -5 13 -16 10 -29 -4 -15 -2 -19 8 -15 14 5 19 -13 14
-47 -1 -8 1 -12 6 -8 8 9 41 -26 49 -52 3 -10 13 -21 21 -24 9 -3 12 -11 8
-18 -4 -7 -4 -10 0 -6 11 9 46 -23 39 -35 -3 -6 -1 -7 5 -3 6 3 17 -2 24 -13
8 -11 20 -21 28 -23 8 -2 20 -8 27 -14 6 -6 26 -10 42 -8 29 3 37 -4 32 -30
-1 -5 5 -3 14 4 12 10 18 11 24 2 8 -14 53 -12 63 3 5 6 8 6 8 -2 0 -7 12 -13
26 -13 17 0 23 4 18 13 -5 8 -2 8 9 -2 14 -11 20 -11 34 0 15 12 16 12 8 -1
-6 -12 -5 -13 6 -2 7 6 19 12 26 12 15 0 63 48 63 63 0 5 7 7 15 3 8 -3 15 0
15 7 0 8 4 6 10 -3 9 -13 10 -13 11 0 1 8 1 19 0 23 -1 4 6 10 14 13 8 3 12
10 9 15 -3 5 2 9 11 9 11 0 15 5 11 15 -3 8 -1 15 4 15 5 0 12 11 16 25 6 24
7 25 21 8 8 -11 11 -12 7 -3 -6 12 -4 13 7 3 7 -7 19 -13 27 -13 7 0 20 -6 28
-14 7 -8 23 -12 34 -9 12 3 20 0 20 -6 0 -7 5 -9 10 -6 6 3 10 1 10 -5 0 -6 5
-8 10 -5 6 3 10 1 10 -4 0 -14 47 -14 55 0 5 6 12 4 22 -8 8 -10 11 -11 7 -3
-7 12 -5 13 8 3 8 -7 18 -10 21 -6 4 3 7 1 7 -6 0 -7 6 -11 14 -8 8 3 17 1 20
-6 3 -8 5 -8 5 1 1 9 12 3 30 -14 34 -32 65 -42 101 -33 10 3 14 -2 12 -13 -2
-11 3 -18 13 -18 11 0 15 -6 10 -19 -4 -13 0 -20 14 -24 20 -5 26 -47 7 -47
-5 0 0 -8 10 -17 11 -10 19 -24 18 -30 -1 -7 -2 -18 -3 -24 0 -6 -8 -9 -16 -5
-9 3 -15 0 -15 -10 0 -8 -4 -13 -8 -10 -5 3 -9 -1 -9 -9 0 -8 4 -15 9 -15 4 0
8 -6 8 -14 0 -10 8 -13 21 -11 27 5 44 -12 45 -48 1 -15 -1 -25 -4 -23 -2 3
-13 1 -23 -5 -11 -5 -19 -6 -19 -1 0 10 -49 10 -65 1 -5 -4 -18 -5 -27 -4 -10
2 -17 0 -17 -3 3 -19 -3 -23 -16 -12 -11 9 -15 9 -15 1 0 -8 -5 -9 -17 -2 -10
5 -26 5 -40 0 -15 -6 -23 -5 -23 2 0 8 -4 8 -14 0 -10 -8 -16 -9 -21 -1 -4 7
-12 7 -26 0 -14 -8 -19 -7 -19 2 0 8 -3 9 -8 3 -10 -14 -32 -17 -32 -4 0 8 -4
8 -14 0 -11 -9 -16 -9 -21 0 -6 8 -10 7 -16 -2 -7 -11 -9 -9 -9 6 0 11 -4 16
-8 10 -8 -12 -32 -13 -49 -2 -10 6 -6 14 11 30 20 19 22 26 13 42 -5 11 -15
23 -21 27 -7 5 -7 8 2 8 10 0 9 4 -3 16 -9 9 -14 23 -11 30 3 8 1 14 -4 14 -6
0 -10 8 -11 18 0 16 -1 16 -7 0 -6 -15 -10 -16 -32 -5 -40 21 -69 26 -74 13
-3 -7 -5 -7 -5 2 -1 8 -6 10 -13 5 -7 -4 -21 -8 -30 -9 -36 -3 -39 -4 -34 -13
3 -5 -1 -12 -10 -15 -8 -3 -13 -9 -11 -13 2 -5 -4 -15 -13 -24 -15 -14 -19
-14 -38 1 -12 10 -19 20 -17 22 3 3 -2 5 -10 5 -8 0 -11 -5 -8 -10 4 -6 1 -7
-8 -1 -19 12 -99 12 -92 0 4 -5 -3 -7 -15 -4 -12 4 -20 2 -16 -3 3 -5 1 -9 -5
-9 -6 0 -8 -7 -5 -15 4 -10 0 -15 -11 -15 -9 0 -13 -4 -10 -10 3 -5 1 -10 -4
-10 -6 0 -11 -11 -11 -25 0 -14 -4 -25 -8 -25 -12 0 -8 -30 6 -57 8 -15 18
-20 29 -16 11 4 14 3 9 -5 -4 -7 -1 -12 7 -12 8 0 20 -6 26 -14 10 -12 8 -14
-11 -9 -17 3 -19 2 -9 -5 19 -14 5 -31 -19 -25 -14 4 -20 1 -18 -8 2 -8 -3
-13 -9 -11 -7 1 -14 -6 -14 -15 -4 -45 -7 -60 -18 -81 -8 -15 -8 -22 -1 -22 6
0 8 -4 5 -10 -3 -5 -2 -10 4 -10 5 0 8 -11 7 -24 -2 -14 3 -27 11 -30 8 -3 11
-11 7 -17 -4 -8 -3 -9 4 -5 7 4 12 2 12 -3 0 -6 12 -11 26 -11 14 0 23 -4 19
-10 -8 -12 5 -13 25 0 9 5 19 5 27 -2 8 -6 13 -6 13 -1 0 5 6 10 14 10 8 0 12
-6 9 -14 -3 -7 -11 -13 -19 -13 -22 0 -17 -18 7 -25 15 -5 18 -10 10 -18 -7
-7 -4 -16 11 -29 12 -10 26 -18 31 -18 6 0 7 -3 4 -7 -8 -8 39 -33 62 -33 9 0
23 6 30 13 11 10 12 9 6 -3 -7 -13 -6 -13 7 -2 13 10 17 10 22 -5 6 -14 9 -15
16 -4 4 8 16 15 27 16 33 4 51 16 49 33 -2 9 4 22 13 29 14 11 14 12 1 13 -8
1 -1 7 15 14 21 9 32 10 37 2 6 -8 8 -8 8 0 0 7 19 10 50 9 28 -1 50 2 50 6 0
4 11 6 25 3 14 -2 25 0 25 6 0 6 11 3 25 -6 14 -9 25 -12 25 -7 0 5 6 10 13
10 6 0 22 3 35 7 14 5 22 3 22 -4 0 -6 5 -8 10 -5 6 4 7 11 4 17 -4 7 -2 8 4
4 6 -4 20 -2 30 3 11 6 22 7 26 4 12 -12 66 -12 66 0 0 7 4 6 10 -3 5 -9 5
-19 0 -25 -6 -7 -5 -16 3 -25 9 -9 9 -11 0 -6 -8 4 -11 -1 -10 -14 1 -11 5
-20 10 -20 5 0 5 -6 -1 -12 -10 -13 -9 -59 2 -77 4 -5 2 -12 -3 -16 -6 -3 -8
-12 -4 -20 3 -8 1 -15 -5 -15 -5 0 -10 -19 -9 -43 0 -24 -3 -49 -7 -55 -4 -7
-2 -12 4 -12 8 0 7 -6 -1 -21 -7 -15 -8 -19 0 -15 7 5 9 1 5 -8 -3 -9 -10 -16
-14 -16 -5 0 -7 -9 -5 -20 2 -11 -1 -20 -6 -20 -6 0 -7 -4 -4 -10 3 -5 2 -10
-3 -10 -5 0 -7 -11 -4 -25 3 -17 -1 -27 -12 -31 -11 -4 -15 -14 -12 -30 3 -14
1 -22 -4 -19 -4 3 -11 -2 -14 -11 -3 -8 -10 -12 -16 -9 -5 3 -10 2 -10 -4 0
-5 4 -12 10 -16 5 -3 7 -12 4 -20 -4 -8 -11 -12 -16 -9 -7 5 -7 1 0 -12 6 -10
7 -27 2 -40 -5 -12 -6 -25 -3 -28 4 -3 0 -6 -7 -6 -9 0 -7 -7 6 -22 10 -12 14
-18 8 -15 -7 4 -14 0 -18 -8 -3 -8 -2 -14 2 -12 4 1 7 0 8 -3 0 -3 6 -14 12
-26 8 -16 8 -24 0 -32 -8 -8 -8 -12 -2 -12 6 0 11 -6 11 -13 0 -8 -6 -14 -13
-14 -7 0 -11 4 -8 9 12 18 -8 6 -36 -22 -17 -17 -30 -26 -30 -20 0 6 -5 8 -10
5 -6 -4 -18 -1 -27 7 -12 9 -15 9 -9 1 12 -21 -7 -15 -78 22 -37 19 -72 33
-77 29 -5 -3 -9 0 -9 7 0 7 -5 8 -12 3 -19 -13 -52 -8 -92 14 -5 3 -6 0 -2 -6
4 -7 2 -12 -5 -12 -7 0 -9 -3 -6 -6 9 -9 -32 -44 -50 -44 -7 0 -16 -7 -19 -15
-4 -8 -12 -15 -20 -15 -8 0 -11 -6 -7 -16 4 -10 1 -15 -8 -14 -27 4 -40 0 -34
-10 6 -9 -14 -14 -42 -11 -7 1 -13 -7 -13 -19 0 -11 -4 -20 -10 -20 -5 0 -7
-7 -3 -16 10 -27 51 -66 62 -60 5 4 12 2 16 -3 10 -17 65 -41 65 -28 0 8 3 8
12 -1 7 -7 17 -8 30 -1 10 5 18 6 18 1 0 -5 7 -9 15 -9 8 0 15 5 15 10 0 5 6
4 14 -2 11 -9 15 -9 19 1 4 10 6 10 6 1 1 -9 8 -10 26 -3 14 5 25 6 25 1 0 -5
7 -12 16 -15 8 -3 13 -2 10 3 -4 5 15 1 42 -9 26 -9 53 -15 61 -12 10 3 11 0
5 -9 -6 -11 -5 -12 7 -2 8 6 24 10 34 9 11 -2 29 1 40 7 11 6 23 10 28 9 4 -1
7 3 7 8 0 13 32 9 42 -5 5 -6 8 -5 8 4 0 7 6 11 15 7 8 -3 15 0 15 6 0 6 3 8
7 5 3 -4 15 1 25 10 16 14 23 15 39 5 11 -7 24 -10 29 -7 6 4 17 -1 26 -10 9
-9 23 -14 30 -11 7 3 16 1 20 -5 3 -5 15 -7 26 -3 13 4 18 2 14 -4 -4 -6 2 -8
16 -4 17 4 20 2 15 -11 -4 -10 1 -18 14 -22 10 -4 19 -11 19 -17 0 -6 3 -8 7
-5 3 4 12 -2 20 -13 8 -11 23 -20 33 -20 11 0 25 -9 32 -20 7 -11 19 -20 26
-20 7 0 15 -7 19 -15 5 -14 8 -14 30 1 14 9 22 11 19 5 -4 -6 -3 -11 3 -11 5
0 13 5 16 10 4 7 11 7 18 2 15 -11 157 -10 175 1 6 5 16 6 21 3 5 -4 11 -1 13
4 3 9 18 15 49 19 13 2 109 101 98 101 -12 0 45 59 58 61 45 4 83 3 83 -3 0
-4 7 -5 15 -2 8 4 15 2 15 -4 0 -5 16 -9 35 -7 29 3 35 0 35 -15 0 -13 6 -18
18 -16 28 6 62 -12 62 -31 0 -15 2 -16 10 -3 8 13 10 12 10 -3 0 -10 4 -16 9
-13 5 3 14 -1 21 -10 11 -12 15 -12 21 -2 7 10 9 8 9 -5 0 -10 4 -16 9 -13 5
3 11 -1 14 -9 4 -8 15 -12 26 -10 11 2 21 -2 24 -8 6 -15 206 -14 216 0 3 6
19 9 34 7 17 -2 30 3 34 12 3 7 9 12 13 9 4 -3 13 2 20 10 13 16 35 21 26 7
-3 -5 2 -9 10 -9 10 0 11 4 4 11 -18 18 -11 29 15 24 13 -3 22 -1 19 4 -3 4 1
11 9 14 9 3 14 16 12 30 -1 14 4 32 12 39 7 8 15 18 16 22 1 4 5 7 10 6 4 -2
7 2 7 8 0 5 5 7 10 4 6 -4 10 -3 9 2 -5 26 2 42 16 37 10 -4 15 0 15 11 0 10
-4 13 -12 9 -8 -5 -7 -1 2 10 8 10 15 37 16 60 2 68 4 77 14 71 17 -11 11 7
-7 21 -12 9 -13 13 -5 14 17 0 15 170 -2 170 -6 0 -4 5 4 10 10 6 11 13 5 18
-6 4 -11 31 -12 60 -1 29 -6 59 -11 65 -4 7 -8 30 -7 53 1 32 -2 41 -14 40 -9
-1 -15 6 -15 16 1 10 -2 15 -7 12 -5 -3 -9 3 -9 12 0 10 -3 15 -6 11 -9 -8
-33 16 -26 27 3 5 0 6 -5 3 -13 -8 -36 17 -25 27 4 5 0 7 -8 5 -21 -4 -70 22
-70 37 0 7 6 15 13 17 7 3 5 6 -5 6 -11 1 -18 -6 -19 -16 0 -11 -3 -13 -6 -5
-2 6 -11 12 -19 12 -8 0 -14 5 -14 12 0 9 -3 9 -11 1 -7 -7 -21 -8 -40 -3 -18
5 -27 5 -24 -1 5 -8 -33 -14 -58 -10 -5 1 -6 -3 -2 -9 4 -6 -6 -10 -25 -10
-19 0 -29 4 -25 10 8 13 -18 8 -27 -5 -4 -5 -12 -11 -18 -11 -5 -1 -15 -2 -20
-3 -6 0 -9 -6 -8 -12 2 -6 -5 -13 -14 -14 -23 -4 -49 -30 -40 -40 4 -5 -1 -5
-10 -2 -10 4 -18 2 -18 -4 0 -5 -9 -20 -20 -31 -15 -17 -17 -24 -8 -30 7 -4 8
-8 3 -8 -6 0 -19 -16 -29 -35 -11 -19 -23 -35 -27 -35 -5 0 -5 -7 -2 -17 5
-12 3 -14 -7 -8 -10 6 -12 4 -7 -9 4 -10 1 -19 -8 -22 -7 -3 -11 -12 -8 -20 3
-8 0 -14 -7 -14 -6 0 -9 -4 -5 -9 3 -5 1 -13 -5 -16 -8 -5 -7 -11 1 -21 9 -11
8 -14 -4 -14 -8 0 -18 -7 -21 -16 -5 -13 -9 -14 -21 -4 -12 10 -13 16 -4 26 6
8 7 14 2 14 -5 0 -14 14 -20 30 -6 17 -8 28 -3 25 9 -6 6 37 -5 73 -4 12 -12
22 -17 22 -6 0 -4 8 3 17 11 13 11 15 1 9 -11 -7 -11 -4 -1 12 11 18 10 24 -5
41 -11 12 -15 21 -10 21 5 0 2 5 -6 10 -13 9 -13 11 0 20 11 7 12 10 2 10 -8
0 -12 8 -10 18 2 9 -3 25 -12 35 -8 10 -15 21 -15 25 0 4 -4 13 -9 21 -7 10
-6 12 3 6 8 -4 6 3 -3 18 -18 26 -28 61 -28 90 1 10 -6 21 -14 24 -13 5 -13 7
-2 14 10 7 9 9 -4 9 -11 0 -18 8 -18 20 0 11 -5 20 -11 20 -5 0 -7 5 -3 12 4
7 3 8 -4 4 -6 -3 -16 3 -22 14 -8 15 -8 20 2 20 9 0 9 3 -2 10 -13 8 -12 10 3
10 9 0 17 -4 17 -8 0 -12 42 -7 70 8 17 9 25 10 28 1 2 -6 9 -8 15 -4 21 13
38 12 44 -4 5 -12 7 -12 14 -2 9 15 109 20 109 6 0 -5 7 -4 15 3 8 7 15 9 15
4 0 -5 4 -3 8 4 13 20 44 3 37 -19 -5 -15 -1 -19 15 -19 12 0 19 -3 17 -7 -6
-10 19 -34 27 -26 3 4 6 -1 6 -10 0 -13 5 -15 25 -7 16 6 25 6 25 -1 0 -6 7
-6 20 1 11 6 20 8 20 4 0 -4 8 2 18 13 9 11 23 18 31 15 10 -3 12 0 7 13 -5
14 -2 16 13 12 16 -4 19 0 16 24 -3 17 0 28 7 26 6 -1 13 11 15 28 2 16 9 33
15 36 6 4 7 12 3 19 -5 8 -3 11 6 8 7 -2 23 4 36 15 30 26 31 122 2 148 -10 9
-16 19 -12 23 3 3 -2 6 -11 6 -15 0 -17 5 -11 28 3 15 13 31 21 35 24 14 37
47 24 62 -7 8 -9 19 -6 24 4 5 1 13 -6 18 -7 4 -13 15 -13 23 0 9 -9 15 -22
14 -13 0 -23 3 -23 8 0 5 -4 6 -10 3 -5 -3 -10 0 -10 8 0 9 -13 13 -41 14 -23
0 -45 7 -50 14 -5 8 -9 10 -9 5 0 -5 -7 -3 -15 4 -12 10 -16 9 -21 -3 -7 -20
-44 -30 -44 -11 0 8 -4 14 -10 14 -5 0 -10 8 -10 17 0 9 -3 13 -6 10 -4 -4
-19 2 -33 12 -27 19 -81 25 -81 9 0 -5 -4 -7 -9 -3 -5 3 -15 -1 -23 -8 -7 -8
-21 -13 -31 -11 -9 1 -15 -2 -12 -6 3 -5 -2 -13 -11 -18 -9 -5 -15 -11 -13
-13 5 -10 -13 -49 -22 -44 -5 3 -6 -1 -2 -10 3 -10 0 -21 -8 -27 -10 -7 -8 -8
8 -3 17 5 21 2 18 -12 -2 -10 -4 -22 -4 -26 -1 -5 -21 -7 -46 -6 -24 2 -47 0
-51 -3 -3 -4 -12 -4 -20 -1 -8 3 -14 0 -14 -7 0 -7 -8 -9 -21 -5 -16 6 -20 4
-13 -6 6 -11 4 -11 -10 0 -14 12 -19 12 -26 1 -4 -7 -17 -11 -29 -7 -12 3 -21
2 -21 -3 0 -4 -23 -6 -50 -4 -28 1 -48 -1 -45 -6 3 -4 -2 -11 -11 -14 -8 -3
-12 -2 -9 4 3 6 1 10 -5 10 -6 0 -8 4 -5 10 3 5 -6 12 -20 16 -17 4 -24 11
-21 20 3 8 1 14 -4 14 -9 0 -7 22 6 54 5 14 4 17 -4 12 -7 -4 -12 -1 -12 8 0
9 -6 13 -14 10 -7 -3 -16 2 -20 11 -3 9 -2 13 4 10 6 -3 10 0 10 8 0 8 15 21
33 28 17 7 36 15 41 17 5 3 6 0 2 -6 -3 -6 1 -17 9 -25 8 -9 15 -22 15 -30 0
-11 14 -16 45 -19 32 -2 44 0 41 9 -3 7 1 10 10 6 7 -3 14 0 14 7 0 6 4 9 9 5
5 -3 16 4 24 15 7 11 18 17 23 12 4 -4 2 1 -5 11 -12 15 -12 17 4 11 13 -5 16
-4 11 4 -4 7 -2 12 4 12 6 0 9 4 5 9 -3 5 -1 12 5 16 7 4 7 12 0 26 -6 10 -7
19 -2 19 5 0 9 7 9 15 0 8 -4 12 -10 8 -5 -3 -7 5 -5 18 1 13 6 22 9 19 3 -3
12 0 20 7 9 7 20 8 28 3 9 -5 20 -3 28 6 8 8 19 12 24 9 5 -4 7 0 4 7 -4 10
11 13 64 12 37 -1 74 -5 81 -9 9 -5 11 -4 6 4 -10 16 21 26 39 11 10 -9 15 -9
15 -1 0 6 9 11 20 11 11 0 20 4 20 9 0 6 9 8 20 6 11 -2 20 1 20 7 0 6 9 8 20
5 10 -3 20 -1 22 4 2 5 14 11 27 14 12 2 29 9 35 15 7 5 16 7 19 3 4 -3 7 -1
7 6 0 8 8 11 19 8 12 -3 22 1 25 10 3 7 14 13 23 11 12 -2 18 3 16 15 0 12 4
16 12 13 8 -3 16 0 19 7 3 8 5 7 5 -2 1 -9 13 -1 31 19 17 18 30 30 30 26 0
-4 6 -1 14 6 8 7 12 16 9 21 -2 4 3 7 11 7 9 0 16 6 16 14 0 7 10 17 23 21 12
3 17 8 11 11 -16 7 6 54 25 54 11 0 11 3 0 17 -10 11 -10 14 -1 9 8 -5 12 0
12 13 0 15 5 19 18 14 9 -3 14 -3 10 2 -4 4 -3 14 2 21 8 8 7 16 -3 26 -17 16
-11 39 9 31 8 -3 14 -1 14 5 0 6 -6 12 -12 15 -10 3 -10 7 -2 18 16 20 23 78
10 83 -6 2 -4 5 5 5 14 1 16 18 16 121 0 72 -3 117 -9 114 -5 -3 -8 2 -6 12 2
12 -2 18 -11 16 -10 -2 -12 5 -8 26 4 18 0 37 -9 51 -12 16 -12 21 -2 21 9 0
9 3 -2 10 -8 5 -11 10 -6 10 5 0 3 7 -4 15 -6 8 -9 18 -6 23 3 6 -2 16 -12 23
-16 13 -16 13 -2 -6 14 -19 14 -19 -2 -6 -10 7 -18 27 -18 43 0 17 -4 27 -10
23 -5 -3 -10 -1 -10 5 0 6 -9 21 -20 33 -14 14 -19 30 -15 44 4 17 2 21 -10
17 -20 -8 -75 45 -67 65 5 14 3 14 -11 2 -15 -12 -17 -11 -17 3 0 10 -4 14
-10 11 -5 -3 -10 0 -10 8 0 8 -18 22 -40 31 -22 9 -40 21 -40 27 0 8 -6 7 -17
-2 -10 -7 -15 -10 -11 -5 10 12 -17 36 -39 36 -15 0 -16 2 -3 11 12 9 11 10
-7 6 -13 -3 -26 -1 -29 5 -4 7 -9 6 -14 -2 -5 -8 -11 -7 -23 5 -9 9 -21 14
-26 11 -5 -3 -11 1 -15 9 -3 8 -12 12 -20 9 -8 -3 -17 0 -21 5 -3 6 -11 9 -16
6 -5 -4 -9 0 -9 7 -1 8 -6 6 -15 -6 -8 -11 -15 -14 -15 -7 0 7 -5 9 -10 6 -6
-4 -9 -1 -8 6 2 6 -3 14 -11 17 -8 3 -11 0 -7 -7 4 -6 2 -11 -3 -11 -6 0 -11
5 -11 10 0 7 -6 8 -17 1 -12 -6 -26 -5 -44 4 -15 8 -29 11 -33 8 -10 -10 -46
-11 -40 -1 3 4 -2 8 -10 8 -9 0 -16 -6 -16 -12 -1 -7 -8 -2 -16 12 -8 14 -13
17 -10 8 4 -14 1 -16 -17 -9 -12 4 -29 7 -37 6 -8 0 -17 2 -20 6 -8 11 -64 14
-79 4 -11 -6 -13 -4 -7 10 5 15 4 16 -9 5 -13 -11 -20 -9 -42 11 -14 13 -23
18 -19 12 4 -7 2 -13 -3 -13 -6 0 -11 18 -11 40 0 22 -5 40 -11 40 -5 0 -8 4
-5 8 2 4 -5 9 -16 9 -12 1 -25 8 -29 14 -6 10 -11 10 -23 0 -9 -8 -16 -9 -16
-3 0 7 -9 6 -25 -1 -14 -7 -25 -15 -25 -19 0 -16 -20 -7 -51 25 -18 17 -30 27
-26 20 5 -7 -10 -3 -32 9 -22 12 -38 25 -35 30 3 4 -6 8 -20 8 -14 0 -28 5
-31 11 -4 6 -13 8 -20 5 -8 -3 -15 -1 -17 5 -2 5 -13 11 -26 14 -12 2 -28 10
-36 18 -8 7 -31 12 -55 11 -22 -1 -38 2 -36 6 6 9 -41 19 -114 25 -30 2 -57 8
-60 12 -9 12 -75 10 -83 -2 -5 -6 -8 -6 -8 2 0 16 -30 12 -68 -9z m193 -1879
c11 -17 -1 -21 -15 -4 -8 9 -8 15 -2 15 6 0 14 -5 17 -11z"/>
<path d="M4975 6540 c3 -5 8 -10 11 -10 2 0 4 5 4 10 0 6 -5 10 -11 10 -5 0
-7 -4 -4 -10z"/>
<path d="M5456 6242 c-3 -5 1 -9 9 -9 8 0 12 4 9 9 -3 4 -7 8 -9 8 -2 0 -6 -4
-9 -8z"/>
<path d="M6756 6218 c3 -5 10 -6 15 -3 13 9 11 12 -6 12 -8 0 -12 -4 -9 -9z"/>
<path d="M7187 5753 c3 -7 6 -13 8 -13 2 0 5 6 8 13 3 8 -1 14 -8 14 -7 0 -11
-6 -8 -14z"/>
<path d="M7210 4558 c0 -4 4 -8 9 -8 6 0 12 4 15 8 3 5 -1 9 -9 9 -8 0 -15 -4
-15 -9z"/>
</g>
</svg>
